<svg width="26" height="38" viewBox="0 0 26 38" fill="none" xmlns="http://www.w3.org/2000/svg">
<path d="M14.543 37.05C17.8828 32.2852 25.5 20.7367 25.5 14.25C25.5 6.38281 19.901 0 13 0C6.09896 0 0.5 6.38281 0.5 14.25C0.5 20.7367 8.11719 32.2852 11.457 37.05C12.2578 38.1855 13.7422 38.1855 14.543 37.05ZM13 9.5C14.1051 9.5 15.1649 10.0004 15.9463 10.8912C16.7277 11.782 17.1667 12.9902 17.1667 14.25C17.1667 15.5098 16.7277 16.718 15.9463 17.6088C15.1649 18.4996 14.1051 19 13 19C11.8949 19 10.8351 18.4996 10.0537 17.6088C9.27232 16.718 8.83333 15.5098 8.83333 14.25C8.83333 12.9902 9.27232 11.782 10.0537 10.8912C10.8351 10.0004 11.8949 9.5 13 9.5Z" fill="black"/>
</svg>
