<svg width="34" height="38" viewBox="0 0 34 38" fill="none" xmlns="http://www.w3.org/2000/svg">
<g clip-path="url(#clip0_372_1389)">
<path d="M9.42448 5.9375H29.5911C30.0953 5.9375 30.5078 6.47188 30.5078 7.125V23.75C30.5078 24.4031 30.0953 24.9375 29.5911 24.9375H28.3766L22.4927 13.2777C22.2406 12.773 21.8052 12.4688 21.3411 12.4688C20.8771 12.4688 20.4417 12.773 20.1896 13.2777L17.199 19.2004L16.4885 17.9461C16.2307 17.4859 15.8182 17.2188 15.3771 17.2188C14.9359 17.2188 14.5292 17.4859 14.2656 17.9461L10.3182 24.9375H9.42448C8.92031 24.9375 8.50781 24.4031 8.50781 23.75V7.125C8.50781 6.47188 8.92031 5.9375 9.42448 5.9375ZM5.75781 7.125V23.75C5.75781 26.3699 7.40208 28.5 9.42448 28.5H29.5911C31.6135 28.5 33.2578 26.3699 33.2578 23.75V7.125C33.2578 4.50508 31.6135 2.375 29.5911 2.375H9.42448C7.40208 2.375 5.75781 4.50508 5.75781 7.125ZM3.00781 8.90625C3.00781 7.91914 2.39479 7.125 1.63281 7.125C0.870833 7.125 0.257812 7.91914 0.257812 8.90625V25.5312C0.257812 31.1051 3.74688 35.625 8.04948 35.625H26.3828C27.1448 35.625 27.7578 34.8309 27.7578 33.8438C27.7578 32.8566 27.1448 32.0625 26.3828 32.0625H8.04948C5.2651 32.0625 3.00781 29.1383 3.00781 25.5312V8.90625ZM14.9245 10.6875C14.9245 10.0576 14.7313 9.45352 14.3875 9.00812C14.0437 8.56272 13.5774 8.3125 13.0911 8.3125C12.6049 8.3125 12.1386 8.56272 11.7948 9.00812C11.451 9.45352 11.2578 10.0576 11.2578 10.6875C11.2578 11.3174 11.451 11.9215 11.7948 12.3669C12.1386 12.8123 12.6049 13.0625 13.0911 13.0625C13.5774 13.0625 14.0437 12.8123 14.3875 12.3669C14.7313 11.9215 14.9245 11.3174 14.9245 10.6875Z" fill="black"/>
</g>
<defs>
<clipPath id="clip0_372_1389">
<rect width="33" height="38" fill="white" transform="translate(0.257812)"/>
</clipPath>
</defs>
</svg>
