<svg width="26" height="38" viewBox="0 0 26 38" fill="none" xmlns="http://www.w3.org/2000/svg">
<g clip-path="url(#clip0_372_1391)">
<path d="M14.3008 37.05C17.6406 32.2852 25.2578 20.7367 25.2578 14.25C25.2578 6.38281 19.6589 0 12.7578 0C5.85677 0 0.257812 6.38281 0.257812 14.25C0.257812 20.7367 7.875 32.2852 11.2148 37.05C12.0156 38.1855 13.5 38.1855 14.3008 37.05ZM12.7578 9.5C13.8629 9.5 14.9227 10.0004 15.7041 10.8912C16.4855 11.782 16.9245 12.9902 16.9245 14.25C16.9245 15.5098 16.4855 16.718 15.7041 17.6088C14.9227 18.4996 13.8629 19 12.7578 19C11.6527 19 10.5929 18.4996 9.81153 17.6088C9.03013 16.718 8.59115 15.5098 8.59115 14.25C8.59115 12.9902 9.03013 11.782 9.81153 10.8912C10.5929 10.0004 11.6527 9.5 12.7578 9.5Z" fill="black"/>
</g>
<defs>
<clipPath id="clip0_372_1391">
<rect width="25" height="38" fill="white" transform="translate(0.257812)"/>
</clipPath>
</defs>
</svg>
