<svg width="829" height="206" viewBox="0 0 829 206" fill="none" xmlns="http://www.w3.org/2000/svg">
<path d="M87.0727 0.585106C56.9289 5.20511 32.3542 17.3326 16.6193 35.6201C9.54744 43.8014 5.56952 50.7314 2.47559 60.4526C-0.883546 70.7514 -0.795148 84.6114 2.56398 95.3914C3.88996 99.6264 6.45351 105.69 8.22147 108.866C12.1994 115.989 22.8956 127.924 30.0558 133.121C43.3156 142.843 62.2328 150.831 79.382 154.008C83.1832 154.778 83.4483 156.029 80.9732 161.996C78.7632 167.194 73.1942 173.161 67.8019 176.145C62.3212 179.225 60.9952 181.92 63.7355 184.808C64.7079 185.963 66.9179 186.348 72.045 186.348C99.9788 186.348 124.907 174.509 135.868 156.125C139.67 149.676 140.023 147.559 137.371 145.634C134.808 143.613 132.333 144.671 130.388 148.714C125.614 158.82 115.095 167.483 101.747 172.391C97.5921 173.835 85.2163 176.723 82.918 176.723C82.2992 176.723 83.4483 174.22 85.3047 171.236C87.2495 168.253 89.4594 163.633 90.1666 160.938C91.6694 155.548 91.9346 148.233 90.697 147.463C90.255 147.078 86.3655 146.211 82.034 145.441C70.1002 143.131 59.2272 139.474 49.415 134.469C29.5254 124.17 18.0337 112.331 11.0502 94.9101C9.10545 90.2901 8.84026 88.1726 8.84026 78.0664C8.84026 64.3026 10.2546 59.4901 17.5033 48.5176C28.2879 32.1551 47.2051 19.7389 71.5146 13.0976C118.277 0.200097 172.289 15.8889 193.769 48.5176C200.222 58.3351 202.167 64.3989 202.698 76.1414C202.963 84.2264 202.698 86.7289 201.106 92.0226C197.482 103.958 190.852 113.583 179.802 122.823C172.642 128.886 171.581 130.908 174.233 133.795C176.443 136.201 178.123 135.624 184.399 130.523C196.333 120.801 205.173 107.904 209.239 94.4289C212.156 84.6114 211.979 70.2701 208.797 60.4526C199.869 32.7326 172.907 11.2689 136.487 2.99135C127.559 0.970102 122.52 0.392609 109.172 0.103859C100.156 -0.088641 90.255 0.103855 87.0727 0.585106Z" fill="white"/>
<path d="M199.428 32.5299C201.903 35.3212 204.555 38.7862 205.351 40.2299C206.146 41.6737 207.295 43.1174 207.914 43.3099C210.655 44.4649 221.97 53.2237 226.389 57.5549C232.666 63.9074 239.561 75.1687 241.771 82.965C243.716 89.9912 244.069 101.156 242.566 108.279C241.417 114.054 237.086 123.197 232.666 129.454C221.262 145.624 195.981 159.772 169.903 164.681C165.572 165.451 161.682 166.317 161.24 166.702C160.002 167.472 160.268 174.402 161.77 180.081C162.566 182.872 164.688 187.589 166.632 190.572C169.019 194.326 169.726 195.962 168.842 195.962C165.395 195.962 149.66 191.631 144.975 189.417C139.052 186.626 130.831 180.851 128.267 177.771L126.588 175.75L123.229 177.867C121.284 179.022 119.781 180.274 119.781 180.659C119.781 181.044 122.08 183.642 124.908 186.337C131.008 192.305 143.384 199.139 152.577 201.641C167.339 205.684 185.55 206.935 188.201 204.047C190.765 201.256 189.616 198.465 184.842 195.77C178.831 192.497 173.969 187.589 171.583 182.295C168.4 175.365 168.577 174.017 172.643 173.247C189.704 170.071 208.71 161.986 221.881 152.361C224.798 150.244 230.014 145.431 233.461 141.677C253.528 119.925 257.594 91.8199 244.246 67.1799C236.997 53.8974 220.202 38.9787 203.671 31.2787C199.34 29.1612 195.627 27.5249 195.362 27.5249C195.185 27.5249 196.953 29.8349 199.428 32.5299Z" fill="white"/>
<path d="M81.2432 34.5415L78.6797 36.9477V78.5277V120.108L81.2432 122.514C83.2764 124.343 84.514 124.824 86.7239 124.439C90.2599 123.765 149.575 86.9977 152.315 83.7252C154.791 80.6452 154.791 76.4102 152.315 73.3302C149.575 70.0577 90.3483 33.2902 86.7239 32.6165C84.514 32.2315 83.2764 32.7127 81.2432 34.5415Z" fill="white"/>
<path d="M350.52 102.207C355.555 103.146 359.693 105.663 362.936 109.759C366.179 113.855 367.8 118.549 367.8 123.839C367.8 128.618 366.605 132.842 364.216 136.511C361.912 140.095 358.541 142.911 354.104 144.959C349.667 147.007 344.419 148.031 338.36 148.031H299.832V58.6872H336.696C342.755 58.6872 347.96 59.6686 352.312 61.6312C356.749 63.5939 360.077 66.3246 362.296 69.8232C364.6 73.3219 365.752 77.2899 365.752 81.7272C365.752 86.9326 364.344 91.2846 361.528 94.7832C358.797 98.2819 355.128 100.757 350.52 102.207ZM317.752 95.5512H334.136C338.403 95.5512 341.688 94.6126 343.992 92.7352C346.296 90.7726 347.448 87.9992 347.448 84.4152C347.448 80.8312 346.296 78.0579 343.992 76.0952C341.688 74.1326 338.403 73.1512 334.136 73.1512H317.752V95.5512ZM335.8 133.439C340.152 133.439 343.523 132.415 345.912 130.367C348.387 128.319 349.624 125.418 349.624 121.663C349.624 117.823 348.344 114.837 345.784 112.703C343.224 110.485 339.768 109.375 335.416 109.375H317.752V133.439H335.8ZM400.002 53.3112V148.031H382.082V53.3112H400.002ZM413.099 112.319C413.099 105.151 414.507 98.7939 417.323 93.2472C420.224 87.7006 424.107 83.4339 428.971 80.4473C433.92 77.4606 439.424 75.9672 445.483 75.9672C450.774 75.9672 455.382 77.0339 459.307 79.1672C463.318 81.3006 466.518 83.9886 468.907 87.2312V77.1192H486.955V148.031H468.907V137.663C466.603 140.991 463.403 143.765 459.307 145.983C455.296 148.117 450.646 149.183 445.355 149.183C439.382 149.183 433.92 147.647 428.971 144.575C424.107 141.503 420.224 137.194 417.323 131.647C414.507 126.015 413.099 119.573 413.099 112.319ZM468.907 112.575C468.907 108.223 468.054 104.511 466.347 101.439C464.64 98.2819 462.336 95.8926 459.435 94.2712C456.534 92.5646 453.419 91.7112 450.091 91.7112C446.763 91.7112 443.691 92.5219 440.875 94.1432C438.059 95.7646 435.755 98.1539 433.963 101.311C432.256 104.383 431.403 108.053 431.403 112.319C431.403 116.586 432.256 120.341 433.963 123.583C435.755 126.741 438.059 129.173 440.875 130.879C443.776 132.586 446.848 133.439 450.091 133.439C453.419 133.439 456.534 132.629 459.435 131.007C462.336 129.301 464.64 126.911 466.347 123.839C468.054 120.682 468.907 116.927 468.907 112.575ZM466.475 58.6872L437.035 72.1272V59.3272L466.475 44.0952V58.6872ZM592.521 76.0952C601.225 76.0952 608.222 78.7832 613.513 84.1592C618.889 89.4499 621.577 96.8739 621.577 106.431V148.031H603.657V108.863C603.657 103.317 602.249 99.0926 599.433 96.1912C596.617 93.2046 592.777 91.7112 587.913 91.7112C583.049 91.7112 579.166 93.2046 576.265 96.1912C573.449 99.0926 572.041 103.317 572.041 108.863V148.031H554.121V108.863C554.121 103.317 552.713 99.0926 549.897 96.1912C547.081 93.2046 543.241 91.7112 538.377 91.7112C533.428 91.7112 529.502 93.2046 526.601 96.1912C523.785 99.0926 522.377 103.317 522.377 108.863V148.031H504.457V77.1192H522.377V85.6952C524.681 82.7086 527.625 80.3619 531.209 78.6552C534.878 76.9486 538.889 76.0952 543.241 76.0952C548.788 76.0952 553.737 77.2899 558.089 79.6792C562.441 81.9832 565.812 85.3112 568.201 89.6632C570.505 85.5672 573.833 82.2819 578.185 79.8072C582.622 77.3326 587.401 76.0952 592.521 76.0952ZM670.07 149.183C663.243 149.183 657.099 147.69 651.638 144.703C646.177 141.631 641.867 137.322 638.71 131.775C635.638 126.229 634.102 119.829 634.102 112.575C634.102 105.322 635.681 98.9219 638.838 93.3752C642.081 87.8286 646.475 83.5619 652.022 80.5752C657.569 77.5032 663.755 75.9672 670.582 75.9672C677.409 75.9672 683.595 77.5032 689.142 80.5752C694.689 83.5619 699.041 87.8286 702.198 93.3752C705.441 98.9219 707.062 105.322 707.062 112.575C707.062 119.829 705.398 126.229 702.07 131.775C698.827 137.322 694.39 141.631 688.758 144.703C683.211 147.69 676.982 149.183 670.07 149.183ZM670.07 133.567C673.313 133.567 676.342 132.799 679.158 131.263C682.059 129.642 684.363 127.253 686.07 124.095C687.777 120.938 688.63 117.098 688.63 112.575C688.63 105.834 686.838 100.671 683.254 97.0872C679.755 93.4179 675.446 91.5832 670.326 91.5832C665.206 91.5832 660.897 93.4179 657.398 97.0872C653.985 100.671 652.278 105.834 652.278 112.575C652.278 119.317 653.942 124.522 657.27 128.191C660.683 131.775 664.95 133.567 670.07 133.567ZM749.775 131.519L767.695 77.1192H786.767L760.527 148.031H738.767L712.655 77.1192H731.855L749.775 131.519ZM805.92 68.6712C802.763 68.6712 800.117 67.6899 797.984 65.7272C795.936 63.6792 794.912 61.1619 794.912 58.1752C794.912 55.1886 795.936 52.7139 797.984 50.7512C800.117 48.7032 802.763 47.6792 805.92 47.6792C809.077 47.6792 811.68 48.7032 813.728 50.7512C815.861 52.7139 816.928 55.1886 816.928 58.1752C816.928 61.1619 815.861 63.6792 813.728 65.7272C811.68 67.6899 809.077 68.6712 805.92 68.6712ZM814.752 77.1192V148.031H796.832V77.1192H814.752Z" fill="white"/>
</svg>
