<svg width="931" height="217" viewBox="0 0 931 217" fill="none" xmlns="http://www.w3.org/2000/svg">
<path d="M87.0727 11.5539C56.9289 16.1739 32.3542 28.3014 16.6193 46.5889C9.54744 54.7701 5.56952 61.7001 2.47559 71.4214C-0.883546 81.7201 -0.795148 95.5801 2.56398 106.36C3.88996 110.595 6.45351 116.659 8.22147 119.835C12.1994 126.958 22.8956 138.893 30.0558 144.09C43.3156 153.811 62.2328 161.8 79.382 164.976C83.1832 165.746 83.4483 166.998 80.9732 172.965C78.7632 178.163 73.1942 184.13 67.8019 187.114C62.3212 190.194 60.9952 192.889 63.7355 195.776C64.7079 196.931 66.9179 197.316 72.045 197.316C99.9788 197.316 124.907 185.478 135.868 167.094C139.67 160.645 140.023 158.528 137.371 156.603C134.808 154.581 132.333 155.64 130.388 159.683C125.614 169.789 115.095 178.451 101.747 183.36C97.5921 184.804 85.2163 187.691 82.918 187.691C82.2992 187.691 83.4483 185.189 85.3047 182.205C87.2495 179.221 89.4594 174.601 90.1666 171.906C91.6694 166.516 91.9346 159.201 90.697 158.431C90.255 158.046 86.3655 157.18 82.034 156.41C70.1002 154.1 59.2272 150.443 49.415 145.438C29.5254 135.139 18.0337 123.3 11.0502 105.879C9.10545 101.259 8.84026 99.1414 8.84026 89.0351C8.84026 75.2714 10.2546 70.4589 17.5033 59.4864C28.2879 43.1239 47.2051 30.7076 71.5146 24.0664C118.277 11.1688 172.289 26.8576 193.769 59.4864C200.222 69.3039 202.167 75.3676 202.698 87.1101C202.963 95.1951 202.698 97.6976 201.106 102.991C197.482 114.926 190.852 124.551 179.802 133.791C172.642 139.855 171.581 141.876 174.233 144.764C176.443 147.17 178.123 146.593 184.399 141.491C196.333 131.77 205.173 118.873 209.239 105.398C212.156 95.5801 211.979 81.2389 208.797 71.4214C199.869 43.7014 172.907 22.2376 136.487 13.9601C127.559 11.9389 122.52 11.3614 109.172 11.0726C100.156 10.8801 90.255 11.0726 87.0727 11.5539Z" fill="#FBC02C"/>
<path d="M199.428 43.4987C201.903 46.2899 204.555 49.7549 205.351 51.1987C206.146 52.6424 207.295 54.0862 207.914 54.2787C210.655 55.4337 221.97 64.1924 226.389 68.5237C232.666 74.8762 239.561 86.1375 241.771 93.9337C243.716 100.96 244.069 112.125 242.566 119.247C241.417 125.022 237.086 134.166 232.666 140.422C221.262 156.592 195.981 170.741 169.903 175.65C165.572 176.42 161.682 177.286 161.24 177.671C160.002 178.441 160.268 185.371 161.77 191.05C162.566 193.841 164.688 198.557 166.632 201.541C169.019 205.295 169.726 206.931 168.842 206.931C165.395 206.931 149.66 202.6 144.975 200.386C139.052 197.595 130.831 191.82 128.267 188.74L126.588 186.719L123.229 188.836C121.284 189.991 119.781 191.242 119.781 191.627C119.781 192.012 122.08 194.611 124.908 197.306C131.008 203.274 143.384 210.107 152.577 212.61C167.339 216.652 185.55 217.904 188.201 215.016C190.765 212.225 189.616 209.434 184.842 206.739C178.831 203.466 173.969 198.557 171.583 193.264C168.4 186.334 168.577 184.986 172.643 184.216C189.704 181.04 208.71 172.955 221.881 163.33C224.798 161.212 230.014 156.4 233.461 152.646C253.528 130.894 257.594 102.789 244.246 78.1487C236.997 64.8662 220.202 49.9474 203.671 42.2474C199.34 40.1299 195.627 38.4937 195.362 38.4937C195.185 38.4937 196.953 40.8037 199.428 43.4987Z" fill="#FBC02C"/>
<path d="M81.2432 45.5102L78.6797 47.9165V89.4965V131.077L81.2432 133.483C83.2764 135.312 84.514 135.793 86.7239 135.408C90.2599 134.734 149.575 97.9665 152.315 94.694C154.791 91.614 154.791 87.379 152.315 84.299C149.575 81.0265 90.3483 44.259 86.7239 43.5852C84.514 43.2002 83.2764 43.6815 81.2432 45.5102Z" fill="#FBC02C"/>
<path d="M357.75 111.3C363.65 112.4 368.5 115.35 372.3 120.15C376.1 124.95 378 130.45 378 136.65C378 142.25 376.6 147.2 373.8 151.5C371.1 155.7 367.15 159 361.95 161.4C356.75 163.8 350.6 165 343.5 165H298.35V60.3H341.55C348.65 60.3 354.75 61.45 359.85 63.75C365.05 66.05 368.95 69.25 371.55 73.35C374.25 77.45 375.6 82.1 375.6 87.3C375.6 93.4 373.95 98.5 370.65 102.6C367.45 106.7 363.15 109.6 357.75 111.3ZM319.35 103.5H338.55C343.55 103.5 347.4 102.4 350.1 100.2C352.8 97.9 354.15 94.65 354.15 90.45C354.15 86.25 352.8 83 350.1 80.7C347.4 78.4 343.55 77.25 338.55 77.25H319.35V103.5ZM340.5 147.9C345.6 147.9 349.55 146.7 352.35 144.3C355.25 141.9 356.7 138.5 356.7 134.1C356.7 129.6 355.2 126.1 352.2 123.6C349.2 121 345.15 119.7 340.05 119.7H319.35V147.9H340.5ZM415.737 54V165H394.737V54H415.737ZM431.085 123.15C431.085 114.75 432.735 107.3 436.035 100.8C439.435 94.3 443.985 89.3 449.685 85.8C455.485 82.3 461.935 80.55 469.035 80.55C475.235 80.55 480.635 81.8 485.235 84.3C489.935 86.8 493.685 89.95 496.485 93.75V81.9H517.635V165H496.485V152.85C493.785 156.75 490.035 160 485.235 162.6C480.535 165.1 475.085 166.35 468.885 166.35C461.885 166.35 455.485 164.55 449.685 160.95C443.985 157.35 439.435 152.3 436.035 145.8C432.735 139.2 431.085 131.65 431.085 123.15ZM496.485 123.45C496.485 118.35 495.485 114 493.485 110.4C491.485 106.7 488.785 103.9 485.385 102C481.985 100 478.335 99 474.435 99C470.535 99 466.935 99.95 463.635 101.85C460.335 103.75 457.635 106.55 455.535 110.25C453.535 113.85 452.535 118.15 452.535 123.15C452.535 128.15 453.535 132.55 455.535 136.35C457.635 140.05 460.335 142.9 463.635 144.9C467.035 146.9 470.635 147.9 474.435 147.9C478.335 147.9 481.985 146.95 485.385 145.05C488.785 143.05 491.485 140.25 493.485 136.65C495.485 132.95 496.485 128.55 496.485 123.45ZM493.635 60.3L459.135 76.05V61.05L493.635 43.2V60.3ZM641.345 80.7C651.545 80.7 659.745 83.85 665.945 90.15C672.245 96.35 675.395 105.05 675.395 116.25V165H654.395V119.1C654.395 112.6 652.745 107.65 649.445 104.25C646.145 100.75 641.645 99 635.945 99C630.245 99 625.695 100.75 622.295 104.25C618.995 107.65 617.345 112.6 617.345 119.1V165H596.345V119.1C596.345 112.6 594.695 107.65 591.395 104.25C588.095 100.75 583.595 99 577.895 99C572.095 99 567.495 100.75 564.095 104.25C560.795 107.65 559.145 112.6 559.145 119.1V165H538.145V81.9H559.145V91.95C561.845 88.45 565.295 85.7 569.495 83.7C573.795 81.7 578.495 80.7 583.595 80.7C590.095 80.7 595.895 82.1 600.995 84.9C606.095 87.6 610.045 91.5 612.845 96.6C615.545 91.8 619.445 87.95 624.545 85.05C629.745 82.15 635.345 80.7 641.345 80.7ZM732.223 166.35C724.223 166.35 717.023 164.6 710.623 161.1C704.223 157.5 699.173 152.45 695.473 145.95C691.873 139.45 690.073 131.95 690.073 123.45C690.073 114.95 691.923 107.45 695.623 100.95C699.423 94.45 704.573 89.45 711.073 85.95C717.573 82.35 724.823 80.55 732.823 80.55C740.823 80.55 748.073 82.35 754.573 85.95C761.073 89.45 766.173 94.45 769.873 100.95C773.673 107.45 775.573 114.95 775.573 123.45C775.573 131.95 773.623 139.45 769.723 145.95C765.923 152.45 760.723 157.5 754.123 161.1C747.623 164.6 740.323 166.35 732.223 166.35ZM732.223 148.05C736.023 148.05 739.573 147.15 742.873 145.35C746.273 143.45 748.973 140.65 750.973 136.95C752.973 133.25 753.973 128.75 753.973 123.45C753.973 115.55 751.873 109.5 747.673 105.3C743.573 101 738.523 98.85 732.523 98.85C726.523 98.85 721.473 101 717.373 105.3C713.373 109.5 711.373 115.55 711.373 123.45C711.373 131.35 713.323 137.45 717.223 141.75C721.223 145.95 726.223 148.05 732.223 148.05ZM825.627 145.65L846.627 81.9H868.977L838.227 165H812.727L782.127 81.9H804.627L825.627 145.65ZM891.422 72C887.722 72 884.622 70.85 882.122 68.55C879.722 66.15 878.522 63.2 878.522 59.7C878.522 56.2 879.722 53.3 882.122 51C884.622 48.6 887.722 47.4 891.422 47.4C895.122 47.4 898.172 48.6 900.572 51C903.072 53.3 904.322 56.2 904.322 59.7C904.322 63.2 903.072 66.15 900.572 68.55C898.172 70.85 895.122 72 891.422 72ZM901.772 81.9V165H880.772V81.9H901.772Z" fill="#FBC02C"/>
</svg>
