<svg width="976" height="217" viewBox="0 0 976 217" fill="none" xmlns="http://www.w3.org/2000/svg">
<path d="M87.0727 11.5539C56.9289 16.1739 32.3542 28.3014 16.6193 46.5889C9.54744 54.7701 5.56952 61.7001 2.47559 71.4214C-0.883546 81.7201 -0.795148 95.5801 2.56398 106.36C3.88996 110.595 6.45351 116.659 8.22147 119.835C12.1994 126.958 22.8956 138.893 30.0558 144.09C43.3156 153.811 62.2328 161.8 79.382 164.976C83.1832 165.746 83.4483 166.998 80.9732 172.965C78.7632 178.163 73.1942 184.13 67.8019 187.114C62.3212 190.194 60.9952 192.889 63.7355 195.776C64.7079 196.931 66.9179 197.316 72.045 197.316C99.9788 197.316 124.907 185.478 135.868 167.094C139.67 160.645 140.023 158.528 137.371 156.603C134.808 154.581 132.333 155.64 130.388 159.683C125.614 169.789 115.095 178.451 101.747 183.36C97.5921 184.804 85.2163 187.691 82.918 187.691C82.2992 187.691 83.4483 185.189 85.3047 182.205C87.2495 179.221 89.4594 174.601 90.1666 171.906C91.6694 166.516 91.9346 159.201 90.697 158.431C90.255 158.046 86.3655 157.18 82.034 156.41C70.1002 154.1 59.2272 150.443 49.415 145.438C29.5254 135.139 18.0337 123.3 11.0502 105.879C9.10545 101.259 8.84026 99.1414 8.84026 89.0351C8.84026 75.2714 10.2546 70.4589 17.5033 59.4864C28.2879 43.1239 47.2051 30.7076 71.5146 24.0664C118.277 11.1688 172.289 26.8576 193.769 59.4864C200.222 69.3039 202.167 75.3676 202.698 87.1101C202.963 95.1951 202.698 97.6976 201.106 102.991C197.482 114.926 190.852 124.551 179.802 133.791C172.642 139.855 171.581 141.876 174.233 144.764C176.443 147.17 178.123 146.593 184.399 141.491C196.333 131.77 205.173 118.873 209.239 105.398C212.156 95.5801 211.979 81.2389 208.797 71.4214C199.869 43.7014 172.907 22.2376 136.487 13.9601C127.559 11.9389 122.52 11.3614 109.172 11.0726C100.156 10.8801 90.255 11.0726 87.0727 11.5539Z" fill="#FBC02C"/>
<path d="M199.428 43.4987C201.903 46.2899 204.555 49.7549 205.351 51.1987C206.146 52.6424 207.295 54.0862 207.914 54.2787C210.655 55.4337 221.97 64.1924 226.389 68.5237C232.666 74.8762 239.561 86.1375 241.771 93.9337C243.716 100.96 244.069 112.125 242.566 119.247C241.417 125.022 237.086 134.166 232.666 140.422C221.262 156.592 195.981 170.741 169.903 175.65C165.572 176.42 161.682 177.286 161.24 177.671C160.002 178.441 160.268 185.371 161.77 191.05C162.566 193.841 164.688 198.557 166.632 201.541C169.019 205.295 169.726 206.931 168.842 206.931C165.395 206.931 149.66 202.6 144.975 200.386C139.052 197.595 130.831 191.82 128.267 188.74L126.588 186.719L123.229 188.836C121.284 189.991 119.781 191.242 119.781 191.627C119.781 192.012 122.08 194.611 124.908 197.306C131.008 203.274 143.384 210.107 152.577 212.61C167.339 216.652 185.55 217.904 188.201 215.016C190.765 212.225 189.616 209.434 184.842 206.739C178.831 203.466 173.969 198.557 171.583 193.264C168.4 186.334 168.577 184.986 172.643 184.216C189.704 181.04 208.71 172.955 221.881 163.33C224.798 161.212 230.014 156.4 233.461 152.646C253.528 130.894 257.594 102.789 244.246 78.1487C236.997 64.8662 220.202 49.9474 203.671 42.2474C199.34 40.1299 195.627 38.4937 195.362 38.4937C195.185 38.4937 196.953 40.8037 199.428 43.4987Z" fill="#FBC02C"/>
<path d="M81.2432 45.5102L78.6797 47.9165V89.4965V131.077L81.2432 133.483C83.2764 135.312 84.514 135.793 86.7239 135.408C90.2599 134.734 149.575 97.9665 152.315 94.694C154.791 91.614 154.791 87.379 152.315 84.299C149.575 81.0265 90.3483 44.259 86.7239 43.5852C84.514 43.2002 83.2764 43.6815 81.2432 45.5102Z" fill="#FBC02C"/>
<path d="M402.75 111.335C408.65 112.435 413.5 115.385 417.3 120.185C421.1 124.985 423 130.485 423 136.685C423 142.285 421.6 147.235 418.8 151.535C416.1 155.735 412.15 159.035 406.95 161.435C401.75 163.835 395.6 165.035 388.5 165.035H343.35V60.3352H386.55C393.65 60.3352 399.75 61.4852 404.85 63.7852C410.05 66.0852 413.95 69.2852 416.55 73.3852C419.25 77.4852 420.6 82.1352 420.6 87.3352C420.6 93.4352 418.95 98.5352 415.65 102.635C412.45 106.735 408.15 109.635 402.75 111.335ZM364.35 103.535H383.55C388.55 103.535 392.4 102.435 395.1 100.235C397.8 97.9352 399.15 94.6852 399.15 90.4852C399.15 86.2852 397.8 83.0352 395.1 80.7352C392.4 78.4352 388.55 77.2852 383.55 77.2852H364.35V103.535ZM385.5 147.935C390.6 147.935 394.55 146.735 397.35 144.335C400.25 141.935 401.7 138.535 401.7 134.135C401.7 129.635 400.2 126.135 397.2 123.635C394.2 121.035 390.15 119.735 385.05 119.735H364.35V147.935H385.5ZM460.737 54.0352V165.035H439.737V54.0352H460.737ZM476.085 123.185C476.085 114.785 477.735 107.335 481.035 100.835C484.435 94.3352 488.985 89.3352 494.685 85.8352C500.485 82.3352 506.935 80.5852 514.035 80.5852C520.235 80.5852 525.635 81.8352 530.235 84.3351C534.935 86.8352 538.685 89.9852 541.485 93.7852V81.9352H562.635V165.035H541.485V152.885C538.785 156.785 535.035 160.035 530.235 162.635C525.535 165.135 520.085 166.385 513.885 166.385C506.885 166.385 500.485 164.585 494.685 160.985C488.985 157.385 484.435 152.335 481.035 145.835C477.735 139.235 476.085 131.685 476.085 123.185ZM541.485 123.485C541.485 118.385 540.485 114.035 538.485 110.435C536.485 106.735 533.785 103.935 530.385 102.035C526.985 100.035 523.335 99.0352 519.435 99.0352C515.535 99.0352 511.935 99.9852 508.635 101.885C505.335 103.785 502.635 106.585 500.535 110.285C498.535 113.885 497.535 118.185 497.535 123.185C497.535 128.185 498.535 132.585 500.535 136.385C502.635 140.085 505.335 142.935 508.635 144.935C512.035 146.935 515.635 147.935 519.435 147.935C523.335 147.935 526.985 146.985 530.385 145.085C533.785 143.085 536.485 140.285 538.485 136.685C540.485 132.985 541.485 128.585 541.485 123.485ZM538.635 60.3352L504.135 76.0851V61.0852L538.635 43.2352V60.3352ZM686.345 80.7352C696.545 80.7352 704.745 83.8852 710.945 90.1852C717.245 96.3852 720.395 105.085 720.395 116.285V165.035H699.395V119.135C699.395 112.635 697.745 107.685 694.445 104.285C691.145 100.785 686.645 99.0352 680.945 99.0352C675.245 99.0352 670.695 100.785 667.295 104.285C663.995 107.685 662.345 112.635 662.345 119.135V165.035H641.345V119.135C641.345 112.635 639.695 107.685 636.395 104.285C633.095 100.785 628.595 99.0352 622.895 99.0352C617.095 99.0352 612.495 100.785 609.095 104.285C605.795 107.685 604.145 112.635 604.145 119.135V165.035H583.145V81.9352H604.145V91.9852C606.845 88.4852 610.295 85.7352 614.495 83.7351C618.795 81.7351 623.495 80.7352 628.595 80.7352C635.095 80.7352 640.895 82.1352 645.995 84.9352C651.095 87.6352 655.045 91.5352 657.845 96.6352C660.545 91.8352 664.445 87.9852 669.545 85.0851C674.745 82.1852 680.345 80.7352 686.345 80.7352ZM777.223 166.385C769.223 166.385 762.023 164.635 755.623 161.135C749.223 157.535 744.173 152.485 740.473 145.985C736.873 139.485 735.073 131.985 735.073 123.485C735.073 114.985 736.923 107.485 740.623 100.985C744.423 94.4852 749.573 89.4852 756.073 85.9852C762.573 82.3852 769.823 80.5852 777.823 80.5852C785.823 80.5852 793.073 82.3852 799.573 85.9852C806.073 89.4852 811.173 94.4852 814.873 100.985C818.673 107.485 820.573 114.985 820.573 123.485C820.573 131.985 818.623 139.485 814.723 145.985C810.923 152.485 805.723 157.535 799.123 161.135C792.623 164.635 785.323 166.385 777.223 166.385ZM777.223 148.085C781.023 148.085 784.573 147.185 787.873 145.385C791.273 143.485 793.973 140.685 795.973 136.985C797.973 133.285 798.973 128.785 798.973 123.485C798.973 115.585 796.873 109.535 792.673 105.335C788.573 101.035 783.523 98.8852 777.523 98.8852C771.523 98.8852 766.473 101.035 762.373 105.335C758.373 109.535 756.373 115.585 756.373 123.485C756.373 131.385 758.323 137.485 762.223 141.785C766.223 145.985 771.223 148.085 777.223 148.085ZM870.627 145.685L891.627 81.9352H913.977L883.227 165.035H857.727L827.127 81.9352H849.627L870.627 145.685ZM936.422 72.0352C932.722 72.0352 929.622 70.8852 927.122 68.5852C924.722 66.1852 923.522 63.2351 923.522 59.7352C923.522 56.2352 924.722 53.3351 927.122 51.0351C929.622 48.6351 932.722 47.4352 936.422 47.4352C940.122 47.4352 943.172 48.6351 945.572 51.0351C948.072 53.3351 949.322 56.2352 949.322 59.7352C949.322 63.2351 948.072 66.1852 945.572 68.5852C943.172 70.8852 940.122 72.0352 936.422 72.0352ZM946.772 81.9352V165.035H925.772V81.9352H946.772Z" fill="#FBC02C"/>
</svg>
