<svg width="46" height="45" viewBox="0 0 46 45" fill="none" xmlns="http://www.w3.org/2000/svg">
<path d="M9.80958 13.24C6.81481 16.1326 5.07051 19.5 4.83104 22.9262C4.72025 24.4615 4.85206 25.6061 5.31572 27.0191C5.79781 28.5223 6.96341 30.1884 8.23894 31.2293C8.74074 31.6377 9.5338 32.1711 9.99689 32.4175C11.0368 32.969 13.2314 33.581 14.4676 33.6537C16.765 33.7999 19.5523 33.2988 21.7401 32.3537C22.2305 32.1522 22.3646 32.2827 22.5846 33.1947C22.7702 33.9932 22.6433 35.1449 22.2875 35.9227C21.9298 36.719 22.0058 37.147 22.5538 37.2833C22.7592 37.3473 23.0391 37.2226 23.614 36.8255C26.7462 34.6616 28.5542 31.3017 28.2504 28.2337C28.1389 27.1609 28.002 26.8779 27.5441 26.851C27.0881 26.8056 26.8989 27.1252 27.0179 27.7637C27.3253 29.3533 26.8681 31.2137 25.7807 32.8402C25.4352 33.3363 24.2883 34.6435 24.0306 34.8215C23.9612 34.8694 23.8814 34.4784 23.8408 33.9744C23.81 33.4636 23.6726 32.7348 23.5272 32.3548C23.2462 31.5878 22.666 30.6843 22.4631 30.6873C22.3814 30.675 21.873 30.8718 21.3231 31.1143C19.7924 31.76 18.2683 32.1607 16.7507 32.3167C13.6618 32.6144 11.386 32.0756 9.15036 30.5138C8.54707 30.1069 8.34077 29.8718 7.49808 28.652C6.35041 26.9907 6.10772 26.3003 6.00559 24.4144C5.8505 21.6041 6.93636 18.6401 9.10839 15.9554C13.2764 10.7764 20.6408 8.48613 25.7701 10.7604C27.3123 11.4455 28.036 12.0268 29.0746 13.403C29.7785 14.3583 29.9574 14.6809 30.2204 15.4431C30.8092 17.1644 30.8683 18.8397 30.3998 20.8109C30.1025 22.0974 30.1521 22.4236 30.6903 22.5667C31.1387 22.6859 31.2789 22.4861 31.5573 21.3842C32.0848 19.2865 32.0006 17.045 31.3329 15.1036C30.8414 13.6926 29.6258 11.9754 28.4503 11.0369C25.1378 8.38272 20.325 7.88057 15.551 9.70266C14.3814 10.1503 13.7682 10.4709 12.2474 11.47C11.2204 12.1453 10.1263 12.9354 9.80958 13.24Z" fill="#FBC02C"/>
<path d="M25.0691 8.39641C25.5794 8.54158 26.1657 8.75438 26.3753 8.86701C26.5849 8.97964 26.8341 9.06489 26.9196 9.04019C27.3231 8.96732 29.3222 9.14801 30.179 9.32841C31.4124 9.60898 33.1245 10.4341 34.0224 11.2039C34.8263 11.9013 35.797 13.2215 36.2224 14.1976C36.575 14.9837 36.8518 16.4229 36.8778 17.5204C36.9475 20.3554 35.2924 24.0215 32.7777 26.634C32.3562 27.0625 31.9923 27.4684 31.9749 27.5491C31.9003 27.7379 32.5079 28.5538 33.1499 29.1228C33.4718 29.3981 34.103 29.803 34.5698 30.0125C35.1505 30.2806 35.3662 30.4234 35.2671 30.4918C34.8805 30.7589 32.755 31.455 32.0451 31.5507C31.1483 31.6726 29.7449 31.6124 29.2006 31.4392L28.8438 31.3253L28.6437 31.8411C28.5219 32.1312 28.4577 32.3986 28.4899 32.4451C28.522 32.4915 28.9964 32.6272 29.5383 32.7333C30.7198 32.9811 32.6773 32.8473 33.9168 32.4372C35.9092 31.7816 38.0554 30.522 38.112 29.9681C38.1667 29.4326 37.8051 29.1847 37.0451 29.2292C36.0982 29.2998 35.1438 29.084 34.4347 28.6299C33.5 28.04 33.4075 27.8636 33.7993 27.4557C35.4474 25.7508 36.9044 23.3027 37.5787 21.1207C37.7292 20.6391 37.9127 19.6543 37.9863 18.9341C38.4225 14.7542 36.535 11.047 32.9837 9.10694C31.0634 8.06525 27.9362 7.5656 25.4406 7.91671C24.7783 7.99666 24.2256 8.08676 24.1959 8.1073C24.176 8.121 24.5669 8.26286 25.0691 8.39641Z" fill="#FBC02C"/>
<path d="M11.9863 17.8002L11.8995 18.2892L15.3666 23.3079L18.8336 28.3266L19.3217 28.4184C19.7022 28.4817 19.8811 28.4439 20.0968 28.2262C20.4371 27.871 24.0222 18.8385 24.0566 18.2312C24.0774 17.6678 23.7242 17.1566 23.1899 16.9766C22.6097 16.7939 12.9029 16.9439 12.4403 17.1433C12.1604 17.268 12.0618 17.422 11.9863 17.8002Z" fill="#FBC02C"/>
</svg>
